<?xml version="1.0" encoding="UTF-8" standalone="no"?><!DOCTYPE svg PUBLIC "-//W3C//DTD SVG 1.1//EN" "http://www.w3.org/Graphics/SVG/1.1/DTD/svg11.dtd"><svg width="100%" height="100%" viewBox="0 0 22 44" version="1.1" xmlns="http://www.w3.org/2000/svg" xmlns:xlink="http://www.w3.org/1999/xlink" xml:space="preserve" xmlns:serif="http://www.serif.com/" style="fill-rule:evenodd;clip-rule:evenodd;stroke-linejoin:round;stroke-miterlimit:2;"><rect id="Plan-de-travail1" serif:id="Plan de travail1" x="0" y="0" width="22" height="44" style="fill:none;"/><g><clipPath id="_clip1"><rect x="0" y="0" width="21.939" height="21.941"/></clipPath><g clip-path="url(#_clip1)"><path d="M10.949,0c-6.006,0 -10.949,4.943 -10.949,10.949c0,6.006 4.943,10.949 10.949,10.949c6.006,0 10.949,-4.943 10.949,-10.949c-0.005,-6.005 -4.944,-10.944 -10.949,-10.949Zm6.153,12.006l-5.1,0l0,5.093c0,0.581 -0.478,1.059 -1.059,1.059c-0.581,0 -1.059,-0.478 -1.059,-1.059l-0,-5.093l-5.093,0c-0.581,0 -1.059,-0.478 -1.059,-1.059c0,-0.581 0.478,-1.059 1.059,-1.059l5.093,0l0,-5.093c0,-0.581 0.478,-1.059 1.059,-1.059c0.581,0 1.059,0.478 1.059,1.059l0,5.093l5.1,0c0.581,0 1.059,0.478 1.059,1.059c0,0.581 -0.478,1.059 -1.059,1.059Z" style="fill:#e24b13;fill-rule:nonzero;"/></g></g><g><clipPath id="_clip2"><rect x="0" y="22" width="21.939" height="21.941"/></clipPath><g clip-path="url(#_clip2)"><path d="M10.949,22c-6.006,0 -10.949,4.943 -10.949,10.949c0,6.006 4.943,10.949 10.949,10.949c6.006,0 10.949,-4.943 10.949,-10.949c-0.005,-6.005 -4.944,-10.944 -10.949,-10.949Zm6.153,12.006l-5.1,0l0,5.093c0,0.581 -0.478,1.059 -1.059,1.059c-0.581,0 -1.059,-0.478 -1.059,-1.059l-0,-5.093l-5.093,0c-0.581,0 -1.059,-0.478 -1.059,-1.059c0,-0.581 0.478,-1.059 1.059,-1.059l5.093,0l0,-5.093c0,-0.581 0.478,-1.059 1.059,-1.059c0.581,0 1.059,0.478 1.059,1.059l0,5.093l5.1,0c0.581,0 1.059,0.478 1.059,1.059c0,0.581 -0.478,1.059 -1.059,1.059Z" style="fill:#fff;fill-rule:nonzero;"/></g></g></svg>