<svg xmlns="http://www.w3.org/2000/svg" xmlns:xlink="http://www.w3.org/1999/xlink" width="109.901" height="120.306" viewBox="0 0 109.901 120.306"><defs><clipPath id="a"><path d="M38.682,35.768a4.4,4.4,0,0,1,3.178,3.778v52.1h1.554V39.534a5.729,5.729,0,0,0-4.141-5.014Z" transform="translate(-38.682 -34.52)" fill="#121f3f"/></clipPath><clipPath id="b"><path d="M42.466,35.768a4.4,4.4,0,0,1,3.177,3.778v52.1H47.2V39.534a5.732,5.732,0,0,0-4.141-5.014Z" transform="translate(-42.466 -34.52)" fill="#121f3f"/></clipPath><clipPath id="c"><path d="M52.754,39.546v52.1h1.555V39.559a4.425,4.425,0,0,1,3.177-3.791l-.591-1.248a5.733,5.733,0,0,0-4.141,5.026" transform="translate(-52.754 -34.52)" fill="#121f3f"/></clipPath><clipPath id="d"><path d="M48.97,39.546v52.1h1.555V39.559A4.428,4.428,0,0,1,53.7,35.768l-.591-1.248a5.731,5.731,0,0,0-4.141,5.026" transform="translate(-48.97 -34.52)" fill="#121f3f"/></clipPath><clipPath id="e"><path d="M102.827,35.768A4.4,4.4,0,0,1,106,39.546v52.1h1.554V39.534a5.734,5.734,0,0,0-4.141-5.014Z" transform="translate(-102.827 -34.52)" fill="#121f3f"/></clipPath><clipPath id="f"><path d="M106.61,35.768a4.4,4.4,0,0,1,3.176,3.778v52.1h1.557V39.534A5.736,5.736,0,0,0,107.2,34.52Z" transform="translate(-106.61 -34.52)" fill="#121f3f"/></clipPath><clipPath id="g"><path d="M116.9,39.546v52.1h1.554V39.559a4.43,4.43,0,0,1,3.178-3.791l-.591-1.248a5.733,5.733,0,0,0-4.141,5.026" transform="translate(-116.898 -34.52)" fill="#121f3f"/></clipPath><clipPath id="h"><path d="M113.113,39.546v52.1h1.556V39.559a4.428,4.428,0,0,1,3.177-3.791l-.591-1.248a5.735,5.735,0,0,0-4.142,5.026" transform="translate(-113.113 -34.52)" fill="#121f3f"/></clipPath><clipPath id="i"><path d="M71.843,83.415c-.147-.431-.513-.827-.284-1.305.114-.242.377-.2.6-.032a2.181,2.181,0,0,1,.789,1.329c.081.364-.133.352-.289.342a.489.489,0,0,0-.108,0c-.076.007-.145.012-.208.012a.447.447,0,0,1-.5-.343m21.984-.025q-.2-.762-.425-1.521c-.045-.155-.133-.329.035-.423.085-.048.254.016.368.067a2.459,2.459,0,0,1,1.17,1.922c-.021.3-.109.354-.588.343a.6.6,0,0,1-.109.009.454.454,0,0,1-.451-.4m-20.589-.274a2.209,2.209,0,0,0-1.483-1.783,4.418,4.418,0,0,0-1.159-.143c-.4-.061-.627-.178-.292-.591a.213.213,0,0,0,.042-.067c.563-2.455,2.763-2.6,4.6-3.256.316-.114.45.042.46.337a2.5,2.5,0,0,0,1.633,2.173c1.589.782,2.275,2.211,2.89,3.722.188.461-.029.541-.432.535-.9-.016-1.8-.006-2.706-.006v.016a15.229,15.229,0,0,0-2.145.021,2.182,2.182,0,0,1-.327.026,1.009,1.009,0,0,1-1.082-.985m22.29.314a3.188,3.188,0,0,0-2.474-2.972.763.763,0,0,1-.445-.92,16.429,16.429,0,0,1,1.112-3.956,3.2,3.2,0,0,1,.85-.924c.268-.254.349,0,.427.2.17.438.006.894.067,1.2a24.741,24.741,0,0,0,1.193,7.139c.077.226.327.54-.027.685a.5.5,0,0,1-.7-.447M93.651,69.949a.244.244,0,0,1,.194-.3c.169-.049.249.094.274.206A2.3,2.3,0,0,1,94,71.19c-.158-.564-.261-.9-.344-1.241M94.04,63.9a4.891,4.891,0,0,1,2.031,3.081,2.276,2.276,0,0,0,.211.675A3.044,3.044,0,0,1,95.2,71.335a1.087,1.087,0,0,1-.3.033A9.086,9.086,0,0,0,94.04,63.9m3.392-7.066a1.145,1.145,0,0,1-.831,1.335c-.643.109-.7.213-.469.886.118.338.177.93.034.966-.583.155-.584.671-.791,1.1-.22-.289-.392-.52-.568-.749a9.445,9.445,0,0,0-.588-.752c-.855-.906-1.1-1.927.293-2.529a.461.461,0,0,0,.276-.638c-.107-.373-.3-.438-.623-.425-.53.02-1.062.021-1.592.013h-.054c-.2,0-.451,0-.433-.266.032-.5-.171-.654-.638-.613-.395.034-.816-.042-1.124.279-.126.131-.359.418.026.44.786.049,1.469.142,1.631,1.1.015.084.22.13.33.2.9.592,1,1.23.361,2.134-.206.288-.517.52-.537.93.229.037.343-.116.492-.214a1.328,1.328,0,0,1,1.618.17,1.665,1.665,0,0,1,.816,1.616c-.094.66-.674.741-1.194.859a3.305,3.305,0,0,1-1.343.025c-.869-.158-1.106-.51-.99-1.421.021-.164.156-.38-.1-.471-.849-.292-1.445-.727-1.184-1.772a.684.684,0,0,0-.144-.591,5.282,5.282,0,0,1-1.144-1.532,2.623,2.623,0,0,0-.226.284c-.971,1.7-.724,3.381.687,5.135,1.159,1.442,2.505,2.731,3.527,4.28a4.274,4.274,0,0,1,.9,2.329c0,.165.1.407-.148.48s-.3-.18-.385-.323a7.08,7.08,0,0,0-3.074-2.655,21.622,21.622,0,0,1-3.351-1.912c-.606-.434-1.139-.974-1.736-1.493-.316,1.311.344,2.036,1.289,2.689,1.373.952,3.334,1.235,3.711,3.383.395-.646.118-1.167.115-1.683-.077-.048-.105-.1-.021-.165.006-.006.063.055.1.087,2.226,1,2.968,4.491,2.087,6.528L92.13,71.98a11.453,11.453,0,0,0-.549,2.5,18.981,18.981,0,0,0-.366,2.43c-.107,1.367-.425,2.717-.638,4.078-.041.265-.276.647.376.549,1.364-.2,1.774.069,2.27,1.376.083.218.453.475.041.731a.736.736,0,0,1-1-.088c-.254-.238-.431-.6-.875-.7a.931.931,0,0,1-1.242.911c-.62-.115-.979-.647-1.438-.954-.2.4.445,1.014-.392,1.173a1,1,0,0,1-1.275-.873c-.013-.052-.034-.1-.047-.152A2.718,2.718,0,0,0,84.3,80.705a4.1,4.1,0,0,1-3.441-2.552.9.9,0,0,1,.213-1.14,4.424,4.424,0,0,0,1.031-1.266.9.9,0,0,1,1.072-.574c1.051.123,2.1.272,3.149.407,1.768.227,2.025.469,2.348,2.208,0,.02.078.028.1.035a7.36,7.36,0,0,0-1.425-6.116.894.894,0,0,1,.606.155.8.8,0,0,0,.41.159l.115-.123a5.191,5.191,0,0,0-5.216-1.765c-.315.118-.214.277-.146.487a3.729,3.729,0,0,0,1.027,1.47c.123.025.31.08.239.2-.108.185-.226-.057-.349-.074a5.389,5.389,0,0,1-3.417-3.442,5.276,5.276,0,0,0,.206,3.046,4.1,4.1,0,0,1-1.713-3.187c-2.35,3.234-3.582,4.233-5.609,4.585.123-.488.714-.581.938-1.206-1.219.746-2.392,1.236-3.532,1.8a.738.738,0,0,0-.344.75,5.063,5.063,0,0,1-.62,2.667,7.281,7.281,0,0,0-.836,2.556,1.659,1.659,0,0,1-.53,1.206c-.162.123-.421.258-.372.478s.24.22.421.219a1.24,1.24,0,0,1,.19.009,2.521,2.521,0,0,1,2.208,1.424c.05.123.265.27.08.411a.546.546,0,0,1-.51.121,3.7,3.7,0,0,1-1-.631c-.236-.163-.521-.439-.679.146-.17.626-.672.595-1.157.392a2.335,2.335,0,0,1-1.371-1.331,6.756,6.756,0,0,0-.034,1.222c.039.459-.153.6-.592.609a22.743,22.743,0,0,0-9.279,2.2s-1.682.974-1.191,1.332q16.964-.021,33.924-.043c2.54,0,5.082.009,7.623.021,5,.021,10,.044,14.993-.042.075,0,.157,0,.242.007.342.018.726.035.81-.313.11-.453-.432-.658-.79-.873a3.385,3.385,0,0,0-.424-.221,24.164,24.164,0,0,0-8.291-2.065c-.553-.021-.793-.184-.894-.718a1.682,1.682,0,0,0-1.65-1.532c-.551-.04-.86-.313-.822-.973.056-.978-.055-1.964-.011-2.943.149-3.263-.715-6.548.222-9.79.006-.019-.023-.046-.08-.143-.89.7-1.072,2.021-2.305,2.653,1.274-2.783,2.292-5.426.825-8.314a1.073,1.073,0,0,1,.865.582c.337.506.643,1.034.946,1.562.084.15.055.41.325.354.306-.064.126-.279.1-.439-.119-.76-.244-1.52-.354-2.279-.027-.187-.135-.513.212-.461,1,.15.618-.4.482-.862a2.635,2.635,0,0,1-.1-.7c-.011-.775,0-1.552,0-2.327l-.2-.059a3.286,3.286,0,0,1-1.614,2.036c-.04-2.965-.911-4.5-2.669-4.61a3.5,3.5,0,0,1,.766,1.737" transform="translate(-55.207 -55.097)" fill="#121f3f"/></clipPath><clipPath id="j"><path d="M61.91,63.8c-.109.388-.532.118-.638.428a3.51,3.51,0,0,0,1.794.388,1.711,1.711,0,0,0,1.527-.975c.85-1.528,1.652-1.867,3.313-1.372a1.227,1.227,0,0,1,.649,2.176A10.358,10.358,0,0,1,66.229,66.2a6.156,6.156,0,0,0-2.121,1.878,1.912,1.912,0,0,0,.557,2.716,6.61,6.61,0,0,0,2.113.839c.349.1.779.006.9.468a.925.925,0,0,1-.443.96,2.706,2.706,0,0,0-.891,2.466,15.278,15.278,0,0,1,1.489-2.846,7.543,7.543,0,0,0,.356-.795c.2-.522.158-.912-.508-1.062a3.868,3.868,0,0,1-1.089-.466,1.367,1.367,0,0,1-.414-2.307,10.658,10.658,0,0,1,1.979-1.931,4.125,4.125,0,0,0,1.65-2.08,1.641,1.641,0,0,0-.945-2.138,3.75,3.75,0,0,0-2.47-.181,4.294,4.294,0,0,1-2.848-.239,1.973,1.973,0,0,0-1.166-.179c-1.072.11-2.166.465-3.208-.591a3.487,3.487,0,0,0,2.736,3.1" transform="translate(-59.174 -60.707)" fill="#121f3f"/></clipPath><clipPath id="k"><path d="M88.052,48.132c-.323,0-.3.348-.32.615-.026.284-.155.56-.184.844a1.081,1.081,0,0,1-1.069,1.122.9.9,0,0,1-1.064-.827c-.036-.244-.211-.28-.416-.252-.1.014-.21.013-.248.145A1.653,1.653,0,0,0,86.021,51.4c.438-.011.876-.037,1.467-.063a7.311,7.311,0,0,1-2.324.656h7.328c-.262-.366-.645-.3-.949-.412-.286-.107-.432-.274-.232-.521.37-.457.105-.942.132-1.413.014-.235-.081-.437-.338-.458s-.325.171-.4.395a.887.887,0,0,1-1.412.572,1.561,1.561,0,0,1-.837-1.412c-.019-.26-.1-.61-.393-.61h-.006" transform="translate(-84.731 -48.132)" fill="#121f3f"/></clipPath><clipPath id="l"><path d="M85.989,52.02a.547.547,0,0,0-.256.131c.211.7-.421.688-.763.884a9.143,9.143,0,0,0-3.461,4.259c.745-.7,1.282-1.589,2.062-2.248a3.525,3.525,0,0,1,2.154-1.077,3.94,3.94,0,0,1,.753.077,1.805,1.805,0,0,0,1.571-.22c.019-.337-.448-.348-.445-.708a.732.732,0,0,1,.513.126.656.656,0,0,0,.532.116,1.7,1.7,0,0,0-1.829-1.408,6.223,6.223,0,0,0-.83.068" transform="translate(-81.509 -51.952)" fill="#121f3f"/></clipPath><clipPath id="m"><path d="M88.544,54.361c.253.012.482.04.708.029.517-.023.159.395.3.555.029.034.149.021.211-.006a5,5,0,0,1,2.693-.41c.071.011.192-.014.219-.063.3-.548.611-.167.906-.008a5.335,5.335,0,0,1,1.651,1.665,4.13,4.13,0,0,0-3.112-3.311,3.485,3.485,0,0,0-3.572,1.549" transform="translate(-88.544 -52.754)" fill="#121f3f"/></clipPath><clipPath id="n"><path d="M82.451,63.046c-.672-3.417.455-6.171,3.253-8.456-3.791.9-5.521,4.655-3.253,8.456" transform="translate(-81.437 -54.59)" fill="#121f3f"/></clipPath><clipPath id="o"><path d="M71.511,64.019a5.209,5.209,0,0,0-2.322,2.669c-.624,1.322-1.326,2.571-3.152,2.32a2.08,2.08,0,0,0,2.862-.632,14.738,14.738,0,0,0,.818-1.537,5.028,5.028,0,0,1,3.317-2.7c.549-.167,1.185-.089,1.762-.588a7.3,7.3,0,0,0-.976-.069,4.972,4.972,0,0,0-2.31.54" transform="translate(-66.038 -63.479)" fill="#121f3f"/></clipPath><clipPath id="p"><path d="M88.386,53.429a8.164,8.164,0,0,1,2.84-1.227,2.212,2.212,0,0,0-1.152-.358,1.762,1.762,0,0,0-1.688,1.585" transform="translate(-88.386 -51.844)" fill="#121f3f"/></clipPath><clipPath id="q"><path d="M88.8,55.428c.019.241.073.473.406.465.516-.011,1.033,0,1.59,0-.224-.755-.761-.748-1.29-.743-.111,0-.224,0-.331,0l-.057,0c-.171,0-.337.049-.317.286" transform="translate(-88.802 -55.142)" fill="#121f3f"/></clipPath></defs><g transform="translate(-33.451 -26.628)"><g transform="translate(39.575 35.867)"><path d="M38.682,35.768a4.4,4.4,0,0,1,3.178,3.778v52.1h1.554V39.534a5.729,5.729,0,0,0-4.141-5.014Z" transform="translate(-38.682 -34.52)" fill="#121f3f"/><g clip-path="url(#a)"><g transform="translate(-0.184 -0.015)"><rect width="57.142" height="4.916" transform="matrix(0.003, -1, 1, 0.003, 0, 57.142)" fill="#121f3f"/></g></g></g><g transform="translate(44.005 35.867)"><path d="M42.466,35.768a4.4,4.4,0,0,1,3.177,3.778v52.1H47.2V39.534a5.732,5.732,0,0,0-4.141-5.014Z" transform="translate(-42.466 -34.52)" fill="#121f3f"/><g clip-path="url(#b)"><g transform="translate(-0.184 -0.015)"><rect width="57.142" height="4.917" transform="translate(0 57.142) rotate(-89.816)" fill="#121f3f"/></g></g></g><g transform="translate(56.049 35.867)"><path d="M52.754,39.546v52.1h1.555V39.559a4.425,4.425,0,0,1,3.177-3.791l-.591-1.248a5.733,5.733,0,0,0-4.141,5.026" transform="translate(-52.754 -34.52)" fill="#121f3f"/><g clip-path="url(#c)"><g transform="translate(-0.184 -0.015)"><rect width="57.142" height="4.916" transform="matrix(0.003, -1, 1, 0.003, 0, 57.142)" fill="#121f3f"/></g></g></g><g transform="translate(51.619 35.867)"><path d="M48.97,39.546v52.1h1.555V39.559A4.428,4.428,0,0,1,53.7,35.768l-.591-1.248a5.731,5.731,0,0,0-4.141,5.026" transform="translate(-48.97 -34.52)" fill="#121f3f"/><g clip-path="url(#d)"><g transform="translate(-0.184 -0.015)"><rect width="57.142" height="4.916" transform="matrix(0.003, -1, 1, 0.003, 0, 57.142)" fill="#121f3f"/></g></g></g><g transform="translate(35.699 31.53)"><rect width="29.017" height="1.349" fill="#121f3f"/></g><g transform="translate(33.451 26.628)"><rect width="33.512" height="1.686" fill="#121f3f"/></g><g transform="translate(35.699 96.385)"><rect width="29.017" height="1.349" fill="#121f3f"/></g><g transform="translate(33.451 100.95)"><rect width="33.512" height="1.686" fill="#121f3f"/></g><g transform="translate(114.671 35.867)"><path d="M102.827,35.768A4.4,4.4,0,0,1,106,39.546v52.1h1.554V39.534a5.734,5.734,0,0,0-4.141-5.014Z" transform="translate(-102.827 -34.52)" fill="#121f3f"/><g clip-path="url(#e)"><g transform="translate(-0.184 -0.015)"><rect width="57.142" height="4.915" transform="translate(0 57.142) rotate(-89.816)" fill="#121f3f"/></g></g></g><g transform="translate(119.099 35.867)"><path d="M106.61,35.768a4.4,4.4,0,0,1,3.176,3.778v52.1h1.557V39.534A5.736,5.736,0,0,0,107.2,34.52Z" transform="translate(-106.61 -34.52)" fill="#121f3f"/><g clip-path="url(#f)"><g transform="translate(-0.184 -0.015)"><rect width="57.142" height="4.917" transform="matrix(0.003, -1, 1, 0.003, 0, 57.142)" fill="#121f3f"/></g></g></g><g transform="translate(131.144 35.867)"><path d="M116.9,39.546v52.1h1.554V39.559a4.43,4.43,0,0,1,3.178-3.791l-.591-1.248a5.733,5.733,0,0,0-4.141,5.026" transform="translate(-116.898 -34.52)" fill="#121f3f"/><g clip-path="url(#g)"><g transform="translate(-0.184 -0.015)"><rect width="57.142" height="4.916" transform="translate(0 57.142) rotate(-89.816)" fill="#121f3f"/></g></g></g><g transform="translate(126.713 35.867)"><path d="M113.113,39.546v52.1h1.556V39.559a4.428,4.428,0,0,1,3.177-3.791l-.591-1.248a5.735,5.735,0,0,0-4.142,5.026" transform="translate(-113.113 -34.52)" fill="#121f3f"/><g clip-path="url(#h)"><g transform="translate(-0.184 -0.015)"><rect width="57.142" height="4.917" transform="translate(0 57.142) rotate(-89.816)" fill="#121f3f"/></g></g></g><g transform="translate(110.792 31.53)"><rect width="29.017" height="1.349" fill="#121f3f"/></g><g transform="translate(108.545 26.628)"><rect width="33.512" height="1.686" fill="#121f3f"/></g><g transform="translate(110.792 96.385)"><rect width="29.017" height="1.349" fill="#121f3f"/></g><g transform="translate(108.545 100.95)"><rect width="33.512" height="1.686" fill="#121f3f"/></g><g transform="translate(35.941 112.375)"><g transform="translate(0 0.432)"><path d="M38.04,102.485h-.092a1.985,1.985,0,0,0-.6-1.369,1.866,1.866,0,0,0-1.37-.57h-.4v-.307H38.04Zm0,17.044v2.247H35.578v-.308h.4a1.865,1.865,0,0,0,1.37-.569,1.988,1.988,0,0,0,.6-1.37Zm1.907-19.29v21.536h-2V100.24Zm-.091,2.245V100.24h2.461v.307h-.4a1.866,1.866,0,0,0-1.37.57,1.975,1.975,0,0,0-.6,1.369Zm0,17.044h.091a1.978,1.978,0,0,0,.6,1.37,1.865,1.865,0,0,0,1.37.569h.4v.308H39.856Z" transform="translate(-35.578 -100.24)" fill="#121f3f"/></g><g transform="translate(8.4)"><path d="M46.168,119.593v2.247H42.753v-.308h.493a2.326,2.326,0,0,0,1.476-.507,2.085,2.085,0,0,0,.769-1.432ZM47.8,99.871h.308l.616,1.816-1.816,20.153H45.245Zm-.739,20.215v.153a1.368,1.368,0,0,0,.355.908,1.077,1.077,0,0,0,.845.416h.462v.276H46.846v-1.754Zm1.047-20.215,8.861,19.168-.708,3.23-8.737-18.952Zm16.984,0,.246,2.062-7.722,17.2q-.462,1.045-.708,1.768a7.687,7.687,0,0,0-.338,1.369H56.26l-.43-1.938Zm.37,20.215h.214v1.754H63.8v-.276h.462a1.069,1.069,0,0,0,.862-.416,1.41,1.41,0,0,0,.338-.908v-.153Zm-.092-20.215,2.646,21.968h-2.4l-1.692-18.645,1.168-3.324Zm1.723,19.722h.645a2.2,2.2,0,0,0,.8,1.432,2.28,2.28,0,0,0,1.446.507h.492v.308H67.091Z" transform="translate(-42.753 -99.871)" fill="#121f3f"/><g transform="translate(29.722)"><path d="M72.879,119.593a1.562,1.562,0,0,0-.062,1.047,1.274,1.274,0,0,0,.508.661,1.311,1.311,0,0,0,.723.231h.276v.308H68.141v-.308h.276a2.866,2.866,0,0,0,1.461-.446,3.278,3.278,0,0,0,1.247-1.493Zm6.615-19.722.277,2.155-7.723,19.722H70.2l7.877-18.707c.226-.513.416-.955.569-1.324s.288-.727.4-1.076a2.844,2.844,0,0,0,.169-.77Zm4.337,13.569v.924H74.2v-.924ZM79.493,99.871,88.6,121.654H85.986l-7.109-18.86Zm5.722,19.722h2.523a3.093,3.093,0,0,0,1.23,1.493,2.947,2.947,0,0,0,1.477.446h.246v.308H83.77v-.308h.277a1.386,1.386,0,0,0,1.045-.507A1.328,1.328,0,0,0,85.216,119.593Z" transform="translate(-68.141 -99.871)" fill="#121f3f"/></g></g><g transform="translate(61.875)"><path d="M93.168,119.593a1.569,1.569,0,0,0-.061,1.047,1.262,1.262,0,0,0,.508.661,1.306,1.306,0,0,0,.721.231h.279v.308H88.43v-.308h.276a2.87,2.87,0,0,0,1.462-.446,3.276,3.276,0,0,0,1.246-1.493Zm6.616-19.722.276,2.155-7.722,19.722H90.492l7.877-18.707c.225-.513.414-.955.568-1.324s.288-.727.4-1.076a2.812,2.812,0,0,0,.17-.77Zm4.338,13.569v.924h-9.63v-.924ZM99.784,99.871l9.106,21.784h-2.614l-7.107-18.86Zm5.722,19.722h2.522a3.088,3.088,0,0,0,1.232,1.493,2.944,2.944,0,0,0,1.477.446h.246v.308H104.06v-.308h.276a1.386,1.386,0,0,0,1.047-.507A1.332,1.332,0,0,0,105.506,119.593Z" transform="translate(-88.43 -99.871)" fill="#121f3f"/></g><g transform="translate(85.934 0.432)"><g transform="translate(0)"><path d="M111.443,102.485h-.092a1.839,1.839,0,0,0-.584-1.369,1.917,1.917,0,0,0-1.385-.57h-.369l-.032-.307h2.462Zm0,17.044v2.247h-2.462v-.308h.4a1.866,1.866,0,0,0,1.37-.569,1.988,1.988,0,0,0,.6-1.37Zm1.908-19.29v21.536h-2V100.24Zm6.06,0a11.947,11.947,0,0,1,5.77,1.338,9.728,9.728,0,0,1,3.876,3.769,12.113,12.113,0,0,1,0,11.307,9.872,9.872,0,0,1-3.876,3.77,11.846,11.846,0,0,1-5.77,1.353h-6.583l-.032-.924h6.615a8.457,8.457,0,0,0,4.6-1.229,8.322,8.322,0,0,0,3.046-3.447,12.788,12.788,0,0,0,0-10.337A8.284,8.284,0,0,0,124,102.393a8.484,8.484,0,0,0-4.586-1.23H112.49v-.923Z" transform="translate(-108.981 -100.24)" fill="#121f3f"/></g></g></g><g transform="translate(50.339 142.236)"><path d="M48.389,125.962h-.02a.381.381,0,0,0-.122-.286.4.4,0,0,0-.289-.119h-.076l-.006-.063h.513Zm0,3.554v.469h-.513v-.064h.082a.385.385,0,0,0,.286-.119.4.4,0,0,0,.125-.286Zm.4-4.023v4.492h-.418v-4.492Zm1.731,0v.2H48.767v-.2Zm-.275,2.181v.193H48.767v-.193Zm-1.476,1.842h.02a.409.409,0,0,0,.124.286.389.389,0,0,0,.286.119h.084v.064h-.514Zm1.751-4.138v.186l-.782-.07a2.253,2.253,0,0,0,.3-.02c.1-.013.2-.027.292-.044A.934.934,0,0,0,50.518,125.378Zm-.275,1.886v.425h-.372v-.014a.324.324,0,0,0,.308-.321v-.09Zm0,.591v.424h-.064v-.1a.309.309,0,0,0-.09-.222.29.29,0,0,0-.218-.092v-.013Zm.275-2.182v.43h-.063v-.1a.318.318,0,0,0-.315-.314v-.02Z" transform="translate(-47.876 -125.378)" fill="#121f3f"/><path d="M52.451,125.945h-.02a.417.417,0,0,0-.125-.286.394.394,0,0,0-.286-.119h-.083v-.063h.514Zm0,3.554v.469h-.514V129.9h.083a.389.389,0,0,0,.286-.119.415.415,0,0,0,.125-.286Zm.4-4.023v4.492h-.417v-4.492Zm-.019.468v-.468h.513v.063h-.083a.394.394,0,0,0-.286.119.412.412,0,0,0-.125.286Zm0,3.554h.019a.41.41,0,0,0,.125.286.389.389,0,0,0,.286.119h.083v.064h-.513Z" transform="translate(-47.183 -125.361)" fill="#121f3f"/><path d="M55.331,129.526v.457H54.8v-.064h.122a.394.394,0,0,0,.391-.392Zm-.013-4.131.282.358.007,4.23h-.3V126.2a6.782,6.782,0,0,0-.057-.8Zm0,0,3.728,3.978.059.7L55.375,126.1Zm.289,4.131a.394.394,0,0,0,.391.392h.122v.064h-.533v-.457Zm2.688-4.035h.533v.455h-.013a.4.4,0,0,0-.118-.28.385.385,0,0,0-.28-.112h-.122Zm.809,0v3.76c0,.137,0,.268.013.393s.023.269.044.428H59.1l-.289-.341v-4.242Zm.513,0v.063H59.5a.386.386,0,0,0-.275.112.4.4,0,0,0-.122.28h-.019v-.455Z" transform="translate(-46.694 -125.375)" fill="#121f3f"/><path d="M61.108,129.513a.335.335,0,0,0-.013.219.265.265,0,0,0,.107.138.271.271,0,0,0,.15.048h.059v.064H60.12v-.064h.057a.592.592,0,0,0,.306-.094.688.688,0,0,0,.26-.311Zm1.38-4.113.057.448-1.611,4.114H60.55l1.644-3.9c.047-.108.085-.2.118-.276s.06-.151.083-.225a.586.586,0,0,0,.035-.16Zm.9,2.83v.193H61.384v-.193Zm-.9-2.83,1.9,4.542h-.546L62.36,126.01Zm1.193,4.113h.526a.645.645,0,0,0,.258.311.6.6,0,0,0,.308.094h.052v.064H63.379v-.064h.059a.287.287,0,0,0,.218-.107A.276.276,0,0,0,63.681,129.513Z" transform="translate(-45.786 -125.374)" fill="#121f3f"/><path d="M65.953,129.526v.457H65.42v-.064h.122a.394.394,0,0,0,.391-.392Zm-.013-4.131.282.358.007,4.23h-.3V126.2a6.782,6.782,0,0,0-.057-.8Zm0,0,3.728,3.978.059.7L66,126.1Zm.289,4.131a.4.4,0,0,0,.391.392h.122v.064h-.533v-.457Zm2.688-4.035h.533v.455h-.013a.4.4,0,0,0-.118-.28.385.385,0,0,0-.28-.112h-.122Zm.809,0v3.76c0,.137,0,.268.013.393s.023.269.044.428h-.057l-.289-.341v-4.242Zm.513,0v.063h-.115a.387.387,0,0,0-.276.112.4.4,0,0,0-.122.28h-.019v-.455Z" transform="translate(-44.881 -125.375)" fill="#121f3f"/><path d="M75.269,128.108l-.077,1.007a2,2,0,0,1-.42.492,1.959,1.959,0,0,1-.6.34,2.261,2.261,0,0,1-.786.126,2.448,2.448,0,0,1-1.187-.3,2.062,2.062,0,0,1-.812-.812,2.742,2.742,0,0,1,0-2.456,2.053,2.053,0,0,1,.811-.816,2.484,2.484,0,0,1,1.228-.292,2.743,2.743,0,0,1,1.522.437l.128.9h-.057a1.394,1.394,0,0,0-.577-.857,1.922,1.922,0,0,0-1.993-.026,1.746,1.746,0,0,0-.642.745,2.571,2.571,0,0,0-.228,1.119,2.6,2.6,0,0,0,.228,1.124,1.791,1.791,0,0,0,.635.749,1.749,1.749,0,0,0,.947.283,2.055,2.055,0,0,0,.843-.171,1.515,1.515,0,0,0,.652-.557,2.29,2.29,0,0,0,.334-1.043Z" transform="translate(-43.912 -125.374)" fill="#121f3f"/><path d="M76.873,125.945h-.019a.417.417,0,0,0-.125-.286.394.394,0,0,0-.286-.119H76.36v-.063h.513Zm0,3.554v.469H76.36V129.9h.083a.389.389,0,0,0,.286-.119.415.415,0,0,0,.125-.286Zm.4-4.023v4.492h-.417v-4.492Zm-.019.468v-.468h.513v.063h-.083a.394.394,0,0,0-.286.119.412.412,0,0,0-.125.286Zm0,3.554h.019a.41.41,0,0,0,.125.286.389.389,0,0,0,.286.119h.083v.064h-.513Z" transform="translate(-43.013 -125.361)" fill="#121f3f"/><path d="M79.907,129.513a.335.335,0,0,0-.013.219.271.271,0,0,0,.107.138.277.277,0,0,0,.151.048h.057v.064h-1.29v-.064h.059a.585.585,0,0,0,.3-.094.681.681,0,0,0,.26-.311Zm1.38-4.113.057.448-1.611,4.114H79.35l1.643-3.9c.047-.108.087-.2.119-.276s.059-.151.082-.225a.6.6,0,0,0,.036-.16Zm.9,2.83v.193H80.183v-.193Zm-.9-2.83,1.9,4.542h-.546L81.16,126.01Zm1.193,4.113h.527a.637.637,0,0,0,.256.311.6.6,0,0,0,.308.094h.052v.064H82.179v-.064h.057a.285.285,0,0,0,.218-.107A.272.272,0,0,0,82.48,129.513Z" transform="translate(-42.576 -125.374)" fill="#121f3f"/><path d="M84.816,125.945H84.8a.412.412,0,0,0-.125-.286.393.393,0,0,0-.284-.119H84.3v-.063h.514Zm0,3.554v.469H84.3V129.9h.084a.388.388,0,0,0,.284-.119.41.41,0,0,0,.125-.286Zm.4-4.023v4.492H84.8v-4.492Zm-.02.468v-.468h.513v.063h-.083a.392.392,0,0,0-.286.119.411.411,0,0,0-.124.286Zm1.751,3.825v.2H85.194v-.2Zm.392-.841-.372,1.04H85.9l.231-.2a1.263,1.263,0,0,0,.555-.107.911.911,0,0,0,.35-.3,2.259,2.259,0,0,0,.236-.436Z" transform="translate(-41.657 -125.361)" fill="#121f3f"/><path d="M95.1,128.184v1.061a2.163,2.163,0,0,1-.4.384,2.114,2.114,0,0,1-.613.317,2.576,2.576,0,0,1-.849.126,2.46,2.46,0,0,1-1.2-.3,2.091,2.091,0,0,1-.812-.815,2.715,2.715,0,0,1,0-2.448,2.08,2.08,0,0,1,.812-.82,2.406,2.406,0,0,1,1.2-.292,3.169,3.169,0,0,1,.635.057,2.589,2.589,0,0,1,.51.158,2.884,2.884,0,0,1,.414.221l.128.9h-.057a1.511,1.511,0,0,0-.317-.626,1.436,1.436,0,0,0-.556-.387,2,2,0,0,0-.756-.135,1.687,1.687,0,0,0-.951.269,1.8,1.8,0,0,0-.64.75,2.838,2.838,0,0,0,0,2.247,1.79,1.79,0,0,0,.64.747,1.737,1.737,0,0,0,.951.273,2.165,2.165,0,0,0,1.033-.26,1.831,1.831,0,0,0,.411-.3l.006-1.137q0-.288-.327-.288h-.1v-.063h1.257v.063h-.1C95.2,127.9,95.09,127.992,95.1,128.184Z" transform="translate(-40.525 -125.374)" fill="#121f3f"/><path d="M96.775,125.945h-.02a.412.412,0,0,0-.125-.286.393.393,0,0,0-.284-.119h-.084v-.063h.514Zm0,3.554v.469h-.514V129.9h.084a.388.388,0,0,0,.284-.119.41.41,0,0,0,.125-.286Zm.4-4.023v4.492h-.418v-4.492Zm.821,0a1.539,1.539,0,0,1,.523.083,1.039,1.039,0,0,1,.642.619,1.384,1.384,0,0,1,.087.5,1.272,1.272,0,0,1-.145.591,1.249,1.249,0,0,1-.391.458.93.93,0,0,1-.555.177.751.751,0,0,1,.238.183c.085.092.159.18.225.267.116.166.217.31.3.43s.177.238.266.354.167.206.232.275a2.69,2.69,0,0,0,.256.251,1.124,1.124,0,0,0,.28.173.861.861,0,0,0,.337.064v.064h-.354a1.3,1.3,0,0,1-.51-.091,1.233,1.233,0,0,1-.362-.22,2.409,2.409,0,0,1-.251-.254c-.014-.018-.048-.067-.107-.148s-.125-.178-.206-.292l-.233-.337-.2-.286c-.056-.078-.088-.125-.1-.137a2.15,2.15,0,0,0-.268-.3.475.475,0,0,0-.322-.135v-.064c.133,0,.246,0,.34,0a1.91,1.91,0,0,0,.366-.052.892.892,0,0,0,.372-.185.871.871,0,0,0,.263-.43,1.241,1.241,0,0,0,.032-.178,1.128,1.128,0,0,0,.007-.208,1.084,1.084,0,0,0-.221-.7.764.764,0,0,0-.575-.28c-.119-.008-.243-.012-.369-.009s-.275,0-.446,0a.394.394,0,0,0-.016-.055c-.009-.033-.027-.081-.048-.144Zm-.841,4.023h.02a.382.382,0,0,0,.121.286.4.4,0,0,0,.289.119h.077v.064h-.507Z" transform="translate(-39.616 -125.361)" fill="#121f3f"/><path d="M103.18,125.4a2.427,2.427,0,0,1,1.207.292,2.085,2.085,0,0,1,.811.82,2.72,2.72,0,0,1,0,2.45,2.082,2.082,0,0,1-.811.818,2.621,2.621,0,0,1-2.407,0,2.074,2.074,0,0,1-.811-.818,2.72,2.72,0,0,1,0-2.45,2.077,2.077,0,0,1,.811-.82A2.413,2.413,0,0,1,103.18,125.4Zm0,4.479a1.682,1.682,0,0,0,.953-.27,1.8,1.8,0,0,0,.636-.749,2.891,2.891,0,0,0,0-2.247,1.8,1.8,0,0,0-.636-.75,1.809,1.809,0,0,0-1.9,0,1.79,1.79,0,0,0-.636.75,2.878,2.878,0,0,0,0,2.247,1.794,1.794,0,0,0,.636.749A1.672,1.672,0,0,0,103.18,129.879Z" transform="translate(-38.828 -125.374)" fill="#121f3f"/><path d="M106.835,125.477v.385h-.019a.3.3,0,0,0-.1-.232.349.349,0,0,0-.242-.09h-.1v-.063Zm.4,0V128.3a1.873,1.873,0,0,0,.169.815,1.32,1.32,0,0,0,.48.548,1.29,1.29,0,0,0,.712.2,1.483,1.483,0,0,0,.75-.186,1.312,1.312,0,0,0,.5-.517,1.583,1.583,0,0,0,.18-.773v-2.907h.3v2.907a1.737,1.737,0,0,1-.215.876,1.5,1.5,0,0,1-.606.587,1.879,1.879,0,0,1-.911.213,2,2,0,0,1-.934-.21,1.513,1.513,0,0,1-.622-.584,1.679,1.679,0,0,1-.221-.876v-2.913Zm.443,0v.063h-.1a.347.347,0,0,0-.24.09.3.3,0,0,0-.1.232h-.013v-.385Zm2.367,0v.385h-.019a.3.3,0,0,0-.1-.232.347.347,0,0,0-.24-.09h-.1v-.063Zm.725,0v.063h-.1a.346.346,0,0,0-.241.09.3.3,0,0,0-.1.232h-.013v-.385Z" transform="translate(-37.889 -125.361)" fill="#121f3f"/><path d="M112.264,125.945h-.02a.385.385,0,0,0-.122-.286.4.4,0,0,0-.288-.119h-.078l0-.063h.513Zm0,3.554v.469h-.513V129.9h.083a.385.385,0,0,0,.284-.119.4.4,0,0,0,.125-.286Zm.4-4.023v4.492h-.418v-4.492Zm.763,0a1.563,1.563,0,0,1,.706.148,1.062,1.062,0,0,1,.455.426,1.318,1.318,0,0,1,.16.664,1.18,1.18,0,0,1-.424.925,1.342,1.342,0,0,1-.436.24,1.264,1.264,0,0,1-.5.061,1.282,1.282,0,0,1-.5-.148v-.064a1.924,1.924,0,0,0,.388.023,1.4,1.4,0,0,0,.359-.071.913.913,0,0,0,.354-.214.943.943,0,0,0,.247-.43,1.22,1.22,0,0,0,.032-.177,1.041,1.041,0,0,0,.007-.208,1.105,1.105,0,0,0-.231-.713.783.783,0,0,0-.636-.269h-.757c-.021-.064-.043-.129-.063-.192Zm-.783,4.023h.02a.409.409,0,0,0,.124.286.391.391,0,0,0,.286.119h.084v.064h-.514Z" transform="translate(-36.972 -125.361)" fill="#121f3f"/></g><g transform="translate(37.249 144.428)"><line x1="8.145" fill="#121f3f"/></g><g transform="translate(131.218 144.428)"><line x1="8.145" fill="#121f3f"/></g><g transform="translate(58.921 59.957)"><path d="M71.843,83.415c-.147-.431-.513-.827-.284-1.305.114-.242.377-.2.6-.032a2.181,2.181,0,0,1,.789,1.329c.081.364-.133.352-.289.342a.489.489,0,0,0-.108,0c-.076.007-.145.012-.208.012a.447.447,0,0,1-.5-.343m21.984-.025q-.2-.762-.425-1.521c-.045-.155-.133-.329.035-.423.085-.048.254.016.368.067a2.459,2.459,0,0,1,1.17,1.922c-.021.3-.109.354-.588.343a.6.6,0,0,1-.109.009.454.454,0,0,1-.451-.4m-20.589-.274a2.209,2.209,0,0,0-1.483-1.783,4.418,4.418,0,0,0-1.159-.143c-.4-.061-.627-.178-.292-.591a.213.213,0,0,0,.042-.067c.563-2.455,2.763-2.6,4.6-3.256.316-.114.45.042.46.337a2.5,2.5,0,0,0,1.633,2.173c1.589.782,2.275,2.211,2.89,3.722.188.461-.029.541-.432.535-.9-.016-1.8-.006-2.706-.006v.016a15.229,15.229,0,0,0-2.145.021,2.182,2.182,0,0,1-.327.026,1.009,1.009,0,0,1-1.082-.985m22.29.314a3.188,3.188,0,0,0-2.474-2.972.763.763,0,0,1-.445-.92,16.429,16.429,0,0,1,1.112-3.956,3.2,3.2,0,0,1,.85-.924c.268-.254.349,0,.427.2.17.438.006.894.067,1.2a24.741,24.741,0,0,0,1.193,7.139c.077.226.327.54-.027.685a.5.5,0,0,1-.7-.447M93.651,69.949a.244.244,0,0,1,.194-.3c.169-.049.249.094.274.206A2.3,2.3,0,0,1,94,71.19c-.158-.564-.261-.9-.344-1.241M94.04,63.9a4.891,4.891,0,0,1,2.031,3.081,2.276,2.276,0,0,0,.211.675A3.044,3.044,0,0,1,95.2,71.335a1.087,1.087,0,0,1-.3.033A9.086,9.086,0,0,0,94.04,63.9m3.392-7.066a1.145,1.145,0,0,1-.831,1.335c-.643.109-.7.213-.469.886.118.338.177.93.034.966-.583.155-.584.671-.791,1.1-.22-.289-.392-.52-.568-.749a9.445,9.445,0,0,0-.588-.752c-.855-.906-1.1-1.927.293-2.529a.461.461,0,0,0,.276-.638c-.107-.373-.3-.438-.623-.425-.53.02-1.062.021-1.592.013h-.054c-.2,0-.451,0-.433-.266.032-.5-.171-.654-.638-.613-.395.034-.816-.042-1.124.279-.126.131-.359.418.026.44.786.049,1.469.142,1.631,1.1.015.084.22.13.33.2.9.592,1,1.23.361,2.134-.206.288-.517.52-.537.93.229.037.343-.116.492-.214a1.328,1.328,0,0,1,1.618.17,1.665,1.665,0,0,1,.816,1.616c-.094.66-.674.741-1.194.859a3.305,3.305,0,0,1-1.343.025c-.869-.158-1.106-.51-.99-1.421.021-.164.156-.38-.1-.471-.849-.292-1.445-.727-1.184-1.772a.684.684,0,0,0-.144-.591,5.282,5.282,0,0,1-1.144-1.532,2.623,2.623,0,0,0-.226.284c-.971,1.7-.724,3.381.687,5.135,1.159,1.442,2.505,2.731,3.527,4.28a4.274,4.274,0,0,1,.9,2.329c0,.165.1.407-.148.48s-.3-.18-.385-.323a7.08,7.08,0,0,0-3.074-2.655,21.622,21.622,0,0,1-3.351-1.912c-.606-.434-1.139-.974-1.736-1.493-.316,1.311.344,2.036,1.289,2.689,1.373.952,3.334,1.235,3.711,3.383.395-.646.118-1.167.115-1.683-.077-.048-.105-.1-.021-.165.006-.006.063.055.1.087,2.226,1,2.968,4.491,2.087,6.528L92.13,71.98a11.453,11.453,0,0,0-.549,2.5,18.981,18.981,0,0,0-.366,2.43c-.107,1.367-.425,2.717-.638,4.078-.041.265-.276.647.376.549,1.364-.2,1.774.069,2.27,1.376.083.218.453.475.041.731a.736.736,0,0,1-1-.088c-.254-.238-.431-.6-.875-.7a.931.931,0,0,1-1.242.911c-.62-.115-.979-.647-1.438-.954-.2.4.445,1.014-.392,1.173a1,1,0,0,1-1.275-.873c-.013-.052-.034-.1-.047-.152A2.718,2.718,0,0,0,84.3,80.705a4.1,4.1,0,0,1-3.441-2.552.9.9,0,0,1,.213-1.14,4.424,4.424,0,0,0,1.031-1.266.9.9,0,0,1,1.072-.574c1.051.123,2.1.272,3.149.407,1.768.227,2.025.469,2.348,2.208,0,.02.078.028.1.035a7.36,7.36,0,0,0-1.425-6.116.894.894,0,0,1,.606.155.8.8,0,0,0,.41.159l.115-.123a5.191,5.191,0,0,0-5.216-1.765c-.315.118-.214.277-.146.487a3.729,3.729,0,0,0,1.027,1.47c.123.025.31.08.239.2-.108.185-.226-.057-.349-.074a5.389,5.389,0,0,1-3.417-3.442,5.276,5.276,0,0,0,.206,3.046,4.1,4.1,0,0,1-1.713-3.187c-2.35,3.234-3.582,4.233-5.609,4.585.123-.488.714-.581.938-1.206-1.219.746-2.392,1.236-3.532,1.8a.738.738,0,0,0-.344.75,5.063,5.063,0,0,1-.62,2.667,7.281,7.281,0,0,0-.836,2.556,1.659,1.659,0,0,1-.53,1.206c-.162.123-.421.258-.372.478s.24.22.421.219a1.24,1.24,0,0,1,.19.009,2.521,2.521,0,0,1,2.208,1.424c.05.123.265.27.08.411a.546.546,0,0,1-.51.121,3.7,3.7,0,0,1-1-.631c-.236-.163-.521-.439-.679.146-.17.626-.672.595-1.157.392a2.335,2.335,0,0,1-1.371-1.331,6.756,6.756,0,0,0-.034,1.222c.039.459-.153.6-.592.609a22.743,22.743,0,0,0-9.279,2.2s-1.682.974-1.191,1.332q16.964-.021,33.924-.043c2.54,0,5.082.009,7.623.021,5,.021,10,.044,14.993-.042.075,0,.157,0,.242.007.342.018.726.035.81-.313.11-.453-.432-.658-.79-.873a3.385,3.385,0,0,0-.424-.221,24.164,24.164,0,0,0-8.291-2.065c-.553-.021-.793-.184-.894-.718a1.682,1.682,0,0,0-1.65-1.532c-.551-.04-.86-.313-.822-.973.056-.978-.055-1.964-.011-2.943.149-3.263-.715-6.548.222-9.79.006-.019-.023-.046-.08-.143-.89.7-1.072,2.021-2.305,2.653,1.274-2.783,2.292-5.426.825-8.314a1.073,1.073,0,0,1,.865.582c.337.506.643,1.034.946,1.562.084.15.055.41.325.354.306-.064.126-.279.1-.439-.119-.76-.244-1.52-.354-2.279-.027-.187-.135-.513.212-.461,1,.15.618-.4.482-.862a2.635,2.635,0,0,1-.1-.7c-.011-.775,0-1.552,0-2.327l-.2-.059a3.286,3.286,0,0,1-1.614,2.036c-.04-2.965-.911-4.5-2.669-4.61a3.5,3.5,0,0,1,.766,1.737" transform="translate(-55.207 -55.097)" fill="#121f3f"/><g clip-path="url(#i)"><g transform="translate(-0.402 0)"><rect width="58.194" height="32.52" fill="#121f3f"/></g></g></g><g transform="translate(63.565 66.525)"><path d="M61.91,63.8c-.109.388-.532.118-.638.428a3.51,3.51,0,0,0,1.794.388,1.711,1.711,0,0,0,1.527-.975c.85-1.528,1.652-1.867,3.313-1.372a1.227,1.227,0,0,1,.649,2.176A10.358,10.358,0,0,1,66.229,66.2a6.156,6.156,0,0,0-2.121,1.878,1.912,1.912,0,0,0,.557,2.716,6.61,6.61,0,0,0,2.113.839c.349.1.779.006.9.468a.925.925,0,0,1-.443.96,2.706,2.706,0,0,0-.891,2.466,15.278,15.278,0,0,1,1.489-2.846,7.543,7.543,0,0,0,.356-.795c.2-.522.158-.912-.508-1.062a3.868,3.868,0,0,1-1.089-.466,1.367,1.367,0,0,1-.414-2.307,10.658,10.658,0,0,1,1.979-1.931,4.125,4.125,0,0,0,1.65-2.08,1.641,1.641,0,0,0-.945-2.138,3.75,3.75,0,0,0-2.47-.181,4.294,4.294,0,0,1-2.848-.239,1.973,1.973,0,0,0-1.166-.179c-1.072.11-2.166.465-3.208-.591a3.487,3.487,0,0,0,2.736,3.1" transform="translate(-59.174 -60.707)" fill="#121f3f"/><g clip-path="url(#j)"><g transform="translate(0 0)"><rect width="10.931" height="14.815" fill="#121f3f"/></g></g></g><g transform="translate(93.486 51.803)"><path d="M88.052,48.132c-.323,0-.3.348-.32.615-.026.284-.155.56-.184.844a1.081,1.081,0,0,1-1.069,1.122.9.9,0,0,1-1.064-.827c-.036-.244-.211-.28-.416-.252-.1.014-.21.013-.248.145A1.653,1.653,0,0,0,86.021,51.4c.438-.011.876-.037,1.467-.063a7.311,7.311,0,0,1-2.324.656h7.328c-.262-.366-.645-.3-.949-.412-.286-.107-.432-.274-.232-.521.37-.457.105-.942.132-1.413.014-.235-.081-.437-.338-.458s-.325.171-.4.395a.887.887,0,0,1-1.412.572,1.561,1.561,0,0,1-.837-1.412c-.019-.26-.1-.61-.393-.61h-.006" transform="translate(-84.731 -48.132)" fill="#121f3f"/><g clip-path="url(#k)"><g transform="translate(-0.142 0)"><rect width="7.902" height="3.859" fill="#121f3f"/></g></g></g><g transform="translate(89.713 56.275)"><path d="M85.989,52.02a.547.547,0,0,0-.256.131c.211.7-.421.688-.763.884a9.143,9.143,0,0,0-3.461,4.259c.745-.7,1.282-1.589,2.062-2.248a3.525,3.525,0,0,1,2.154-1.077,3.94,3.94,0,0,1,.753.077,1.805,1.805,0,0,0,1.571-.22c.019-.337-.448-.348-.445-.708a.732.732,0,0,1,.513.126.656.656,0,0,0,.532.116,1.7,1.7,0,0,0-1.829-1.408,6.223,6.223,0,0,0-.83.068" transform="translate(-81.509 -51.952)" fill="#121f3f"/><g clip-path="url(#l)"><g transform="translate(0 0)"><rect width="7.139" height="5.342" fill="#121f3f"/></g></g></g><g transform="translate(97.949 57.214)"><path d="M88.544,54.361c.253.012.482.04.708.029.517-.023.159.395.3.555.029.034.149.021.211-.006a5,5,0,0,1,2.693-.41c.071.011.192-.014.219-.063.3-.548.611-.167.906-.008a5.335,5.335,0,0,1,1.651,1.665,4.13,4.13,0,0,0-3.112-3.311,3.485,3.485,0,0,0-3.572,1.549" transform="translate(-88.544 -52.754)" fill="#121f3f"/><g clip-path="url(#m)"><g transform="translate(0 0)"><rect width="6.684" height="3.369" fill="#121f3f"/></g></g></g><g transform="translate(89.629 59.364)"><path d="M82.451,63.046c-.672-3.417.455-6.171,3.253-8.456-3.791.9-5.521,4.655-3.253,8.456" transform="translate(-81.437 -54.59)" fill="#121f3f"/><g clip-path="url(#n)"><g transform="translate(-1.254 0)"><rect width="5.521" height="8.456" fill="#121f3f"/></g></g></g><g transform="translate(71.601 69.77)"><path d="M71.511,64.019a5.209,5.209,0,0,0-2.322,2.669c-.624,1.322-1.326,2.571-3.152,2.32a2.08,2.08,0,0,0,2.862-.632,14.738,14.738,0,0,0,.818-1.537,5.028,5.028,0,0,1,3.317-2.7c.549-.167,1.185-.089,1.762-.588a7.3,7.3,0,0,0-.976-.069,4.972,4.972,0,0,0-2.31.54" transform="translate(-66.038 -63.479)" fill="#121f3f"/><g clip-path="url(#o)"><g transform="translate(0 0)"><rect width="8.759" height="6.128" fill="#121f3f"/></g></g></g><g transform="translate(97.764 56.149)"><path d="M88.386,53.429a8.164,8.164,0,0,1,2.84-1.227,2.212,2.212,0,0,0-1.152-.358,1.762,1.762,0,0,0-1.688,1.585" transform="translate(-88.386 -51.844)" fill="#121f3f"/><g clip-path="url(#p)"><g transform="translate(0 0)"><rect width="2.84" height="1.585" fill="#121f3f"/></g></g></g><g transform="translate(98.251 60.01)"><path d="M88.8,55.428c.019.241.073.473.406.465.516-.011,1.033,0,1.59,0-.224-.755-.761-.748-1.29-.743-.111,0-.224,0-.331,0l-.057,0c-.171,0-.337.049-.317.286" transform="translate(-88.802 -55.142)" fill="#121f3f"/><g clip-path="url(#q)"><g transform="translate(-0.018 -0.006)"><rect width="2.016" height="0.764" fill="#121f3f"/></g></g></g></g></svg>