<svg xmlns="http://www.w3.org/2000/svg" xmlns:xlink="http://www.w3.org/1999/xlink" width="21.941" height="21.941" viewBox="0 0 21.941 21.941"><defs><clipPath id="a"><path d="M591.961,1428.68H613.9v21.941H591.961Zm0,0" transform="translate(-591.961 -1428.68)"/></clipPath></defs><g clip-path="url(#a)"><path d="M602.91,1428.68a10.949,10.949,0,1,0,10.949,10.949A10.958,10.958,0,0,0,602.91,1428.68Zm6.153,12.006h-5.1v5.093a1.059,1.059,0,1,1-2.118,0v-5.093h-5.093a1.059,1.059,0,1,1,0-2.118h5.093v-5.093a1.059,1.059,0,1,1,2.118,0v5.093h5.1a1.059,1.059,0,0,1,0,2.118Zm0,0" transform="translate(-591.961 -1428.68)" fill="#e24b13"/></g></svg>